%MOMM*%
%FSLAX46Y46*%
%IPPOS*%
%ADD10C,0.1*%
%ADD11C,0.1*%
%TF.GenerationSoftware,halfmarble,hm-panelizer,1.0.0 (beta)*%
%TF.SameCoordinates,Original*%
%TF.FileFunction,Legend,Top*%
%TF.FilePolarity,Positive*%
%LPD*%
%TA.AperFunction,Profile*%
D10*
X82152000Y2500000D02*
X82152000Y0D01*
X81152000Y1300000D02*
X81152000Y0D01*
X80152000Y1300000D02*
X80152000Y0D01*
X79152000Y1300000D02*
X79152000Y0D01*
X78152000Y1300000D02*
X78152000Y0D01*
X77152000Y1900000D02*
X77152000Y0D01*
X76152000Y1300000D02*
X76152000Y0D01*
X75152000Y1300000D02*
X75152000Y0D01*
X74152000Y1300000D02*
X74152000Y0D01*
X73152000Y1300000D02*
X73152000Y0D01*
X72152000Y2500000D02*
X72152000Y0D01*
X71152000Y1300000D02*
X71152000Y0D01*
X70152000Y1300000D02*
X70152000Y0D01*
X69152000Y1300000D02*
X69152000Y0D01*
X68152000Y1300000D02*
X68152000Y0D01*
X67152000Y1900000D02*
X67152000Y0D01*
X66152000Y1300000D02*
X66152000Y0D01*
X65152000Y1300000D02*
X65152000Y0D01*
X64152000Y1300000D02*
X64152000Y0D01*
X63152000Y1300000D02*
X63152000Y0D01*
X62152000Y2500000D02*
X62152000Y0D01*
X61152000Y1300000D02*
X61152000Y0D01*
X60152000Y1300000D02*
X60152000Y0D01*
X59152000Y1300000D02*
X59152000Y0D01*
X58152000Y1300000D02*
X58152000Y0D01*
X57152000Y1900000D02*
X57152000Y0D01*
X56152000Y1300000D02*
X56152000Y0D01*
X55152000Y1300000D02*
X55152000Y0D01*
X54152000Y1300000D02*
X54152000Y0D01*
X53152000Y1300000D02*
X53152000Y0D01*
X52152000Y2500000D02*
X52152000Y0D01*
X51152000Y1300000D02*
X51152000Y0D01*
X50152000Y1300000D02*
X50152000Y0D01*
X49152000Y1300000D02*
X49152000Y0D01*
X48152000Y1300000D02*
X48152000Y0D01*
X47152000Y1900000D02*
X47152000Y0D01*
X46152000Y1300000D02*
X46152000Y0D01*
X45152000Y1300000D02*
X45152000Y0D01*
X44152000Y1300000D02*
X44152000Y0D01*
X43152000Y1300000D02*
X43152000Y0D01*
X42152000Y2500000D02*
X42152000Y0D01*
X41152000Y1300000D02*
X41152000Y0D01*
X40152000Y1300000D02*
X40152000Y0D01*
X39152000Y1300000D02*
X39152000Y0D01*
X38152000Y1300000D02*
X38152000Y0D01*
X37152000Y1900000D02*
X37152000Y0D01*
X36152000Y1300000D02*
X36152000Y0D01*
X35152000Y1300000D02*
X35152000Y0D01*
X34152000Y1300000D02*
X34152000Y0D01*
X33152000Y1300000D02*
X33152000Y0D01*
X32152000Y2500000D02*
X32152000Y0D01*
X31152000Y1300000D02*
X31152000Y0D01*
X30152000Y1300000D02*
X30152000Y0D01*
X29152000Y1300000D02*
X29152000Y0D01*
X28152000Y1300000D02*
X28152000Y0D01*
X27152000Y1900000D02*
X27152000Y0D01*
X26152000Y1300000D02*
X26152000Y0D01*
X25152000Y1300000D02*
X25152000Y0D01*
X24152000Y1300000D02*
X24152000Y0D01*
X23152000Y1300000D02*
X23152000Y0D01*
X22152000Y2500000D02*
X22152000Y0D01*
X21152000Y1300000D02*
X21152000Y0D01*
X20152000Y1300000D02*
X20152000Y0D01*
X19152000Y1300000D02*
X19152000Y0D01*
X18152000Y1300000D02*
X18152000Y0D01*
X17152000Y1900000D02*
X17152000Y0D01*
X16152000Y1300000D02*
X16152000Y0D01*
X15152000Y1300000D02*
X15152000Y0D01*
X14152000Y1300000D02*
X14152000Y0D01*
X13152000Y1300000D02*
X13152000Y0D01*
X12152000Y2500000D02*
X12152000Y0D01*
X11152000Y1300000D02*
X11152000Y0D01*
X10152000Y1300000D02*
X10152000Y0D01*
X9152000Y1300000D02*
X9152000Y0D01*
X8152000Y1300000D02*
X8152000Y0D01*
X7152000Y1900000D02*
X7152000Y0D01*
X6152000Y1300000D02*
X6152000Y0D01*
X5152000Y1300000D02*
X5152000Y0D01*
X4152000Y1300000D02*
X4152000Y0D01*
X3152000Y1300000D02*
X3152000Y0D01*
X2152000Y2500000D02*
X2152000Y0D01*
X1152000Y1300000D02*
X1152000Y0D01*
X152000Y1300000D02*
X152000Y0D01*
X0Y6000000D02*
X0Y3500000D01*
X1600000Y6000000D02*
X1600000Y4700000D01*
X3200000Y6000000D02*
X3200000Y4700000D01*
X4800000Y6000000D02*
X4800000Y4700000D01*
X6400000Y6000000D02*
X6400000Y4700000D01*
X8000000Y6000000D02*
X8000000Y4700000D01*
X9600000Y6000000D02*
X9600000Y4700000D01*
X11200000Y6000000D02*
X11200000Y4700000D01*
X12800000Y6000000D02*
X12800000Y4100000D01*
X14400000Y6000000D02*
X14400000Y4700000D01*
X16000000Y6000000D02*
X16000000Y4700000D01*
X17600000Y6000000D02*
X17600000Y4700000D01*
X19200000Y6000000D02*
X19200000Y4700000D01*
X20800000Y6000000D02*
X20800000Y4700000D01*
X22400000Y6000000D02*
X22400000Y4700000D01*
X24000000Y6000000D02*
X24000000Y4700000D01*
X25600000Y6000000D02*
X25600000Y3500000D01*
X27200000Y6000000D02*
X27200000Y4700000D01*
X28800000Y6000000D02*
X28800000Y4700000D01*
X30400000Y6000000D02*
X30400000Y4700000D01*
X32000000Y6000000D02*
X32000000Y4700000D01*
X33600000Y6000000D02*
X33600000Y4700000D01*
X35200000Y6000000D02*
X35200000Y4700000D01*
X36800000Y6000000D02*
X36800000Y4700000D01*
X38400000Y6000000D02*
X38400000Y4100000D01*
X40000000Y6000000D02*
X40000000Y4700000D01*
X41600000Y6000000D02*
X41600000Y4700000D01*
X43200000Y6000000D02*
X43200000Y4700000D01*
X44800000Y6000000D02*
X44800000Y4700000D01*
X46400000Y6000000D02*
X46400000Y4700000D01*
X48000000Y6000000D02*
X48000000Y4700000D01*
X49600000Y6000000D02*
X49600000Y4700000D01*
X51200000Y6000000D02*
X51200000Y3500000D01*
X52800000Y6000000D02*
X52800000Y4700000D01*
X54400000Y6000000D02*
X54400000Y4700000D01*
X56000000Y6000000D02*
X56000000Y4700000D01*
X57600000Y6000000D02*
X57600000Y4700000D01*
X59200000Y6000000D02*
X59200000Y4700000D01*
X60800000Y6000000D02*
X60800000Y4700000D01*
X62400000Y6000000D02*
X62400000Y4700000D01*
X64000000Y6000000D02*
X64000000Y4100000D01*
X65600000Y6000000D02*
X65600000Y4700000D01*
X67200000Y6000000D02*
X67200000Y4700000D01*
X68800000Y6000000D02*
X68800000Y4700000D01*
X70400000Y6000000D02*
X70400000Y4700000D01*
X72000000Y6000000D02*
X72000000Y4700000D01*
X73600000Y6000000D02*
X73600000Y4700000D01*
X75200000Y6000000D02*
X75200000Y4700000D01*
X76800000Y6000000D02*
X76800000Y3500000D01*
X78400000Y6000000D02*
X78400000Y4700000D01*
X80000000Y6000000D02*
X80000000Y4700000D01*
%TF.GenerationSoftware,halfmarble,hm-panelizer,1.0.0 (beta)*%
%TF.SameCoordinates,Original*%
%TF.FileFunction,Legend,Top*%
%TF.FilePolarity,Positive*%
%LPD*%
%TA.AperFunction,Profile*%
D11*
X82152000Y96600000D02*
X82152000Y94100000D01*
X81152000Y95400000D02*
X81152000Y94100000D01*
X80152000Y95400000D02*
X80152000Y94100000D01*
X79152000Y95400000D02*
X79152000Y94100000D01*
X78152000Y95400000D02*
X78152000Y94100000D01*
X77152000Y96000000D02*
X77152000Y94100000D01*
X76152000Y95400000D02*
X76152000Y94100000D01*
X75152000Y95400000D02*
X75152000Y94100000D01*
X74152000Y95400000D02*
X74152000Y94100000D01*
X73152000Y95400000D02*
X73152000Y94100000D01*
X72152000Y96600000D02*
X72152000Y94100000D01*
X71152000Y95400000D02*
X71152000Y94100000D01*
X70152000Y95400000D02*
X70152000Y94100000D01*
X69152000Y95400000D02*
X69152000Y94100000D01*
X68152000Y95400000D02*
X68152000Y94100000D01*
X67152000Y96000000D02*
X67152000Y94100000D01*
X66152000Y95400000D02*
X66152000Y94100000D01*
X65152000Y95400000D02*
X65152000Y94100000D01*
X64152000Y95400000D02*
X64152000Y94100000D01*
X63152000Y95400000D02*
X63152000Y94100000D01*
X62152000Y96600000D02*
X62152000Y94100000D01*
X61152000Y95400000D02*
X61152000Y94100000D01*
X60152000Y95400000D02*
X60152000Y94100000D01*
X59152000Y95400000D02*
X59152000Y94100000D01*
X58152000Y95400000D02*
X58152000Y94100000D01*
X57152000Y96000000D02*
X57152000Y94100000D01*
X56152000Y95400000D02*
X56152000Y94100000D01*
X55152000Y95400000D02*
X55152000Y94100000D01*
X54152000Y95400000D02*
X54152000Y94100000D01*
X53152000Y95400000D02*
X53152000Y94100000D01*
X52152000Y96600000D02*
X52152000Y94100000D01*
X51152000Y95400000D02*
X51152000Y94100000D01*
X50152000Y95400000D02*
X50152000Y94100000D01*
X49152000Y95400000D02*
X49152000Y94100000D01*
X48152000Y95400000D02*
X48152000Y94100000D01*
X47152000Y96000000D02*
X47152000Y94100000D01*
X46152000Y95400000D02*
X46152000Y94100000D01*
X45152000Y95400000D02*
X45152000Y94100000D01*
X44152000Y95400000D02*
X44152000Y94100000D01*
X43152000Y95400000D02*
X43152000Y94100000D01*
X42152000Y96600000D02*
X42152000Y94100000D01*
X41152000Y95400000D02*
X41152000Y94100000D01*
X40152000Y95400000D02*
X40152000Y94100000D01*
X39152000Y95400000D02*
X39152000Y94100000D01*
X38152000Y95400000D02*
X38152000Y94100000D01*
X37152000Y96000000D02*
X37152000Y94100000D01*
X36152000Y95400000D02*
X36152000Y94100000D01*
X35152000Y95400000D02*
X35152000Y94100000D01*
X34152000Y95400000D02*
X34152000Y94100000D01*
X33152000Y95400000D02*
X33152000Y94100000D01*
X32152000Y96600000D02*
X32152000Y94100000D01*
X31152000Y95400000D02*
X31152000Y94100000D01*
X30152000Y95400000D02*
X30152000Y94100000D01*
X29152000Y95400000D02*
X29152000Y94100000D01*
X28152000Y95400000D02*
X28152000Y94100000D01*
X27152000Y96000000D02*
X27152000Y94100000D01*
X26152000Y95400000D02*
X26152000Y94100000D01*
X25152000Y95400000D02*
X25152000Y94100000D01*
X24152000Y95400000D02*
X24152000Y94100000D01*
X23152000Y95400000D02*
X23152000Y94100000D01*
X22152000Y96600000D02*
X22152000Y94100000D01*
X21152000Y95400000D02*
X21152000Y94100000D01*
X20152000Y95400000D02*
X20152000Y94100000D01*
X19152000Y95400000D02*
X19152000Y94100000D01*
X18152000Y95400000D02*
X18152000Y94100000D01*
X17152000Y96000000D02*
X17152000Y94100000D01*
X16152000Y95400000D02*
X16152000Y94100000D01*
X15152000Y95400000D02*
X15152000Y94100000D01*
X14152000Y95400000D02*
X14152000Y94100000D01*
X13152000Y95400000D02*
X13152000Y94100000D01*
X12152000Y96600000D02*
X12152000Y94100000D01*
X11152000Y95400000D02*
X11152000Y94100000D01*
X10152000Y95400000D02*
X10152000Y94100000D01*
X9152000Y95400000D02*
X9152000Y94100000D01*
X8152000Y95400000D02*
X8152000Y94100000D01*
X7152000Y96000000D02*
X7152000Y94100000D01*
X6152000Y95400000D02*
X6152000Y94100000D01*
X5152000Y95400000D02*
X5152000Y94100000D01*
X4152000Y95400000D02*
X4152000Y94100000D01*
X3152000Y95400000D02*
X3152000Y94100000D01*
X2152000Y96600000D02*
X2152000Y94100000D01*
X1152000Y95400000D02*
X1152000Y94100000D01*
X152000Y95400000D02*
X152000Y94100000D01*
X0Y100100000D02*
X0Y97600000D01*
X1600000Y100100000D02*
X1600000Y98800000D01*
X3200000Y100100000D02*
X3200000Y98800000D01*
X4800000Y100100000D02*
X4800000Y98800000D01*
X6400000Y100100000D02*
X6400000Y98800000D01*
X8000000Y100100000D02*
X8000000Y98800000D01*
X9600000Y100100000D02*
X9600000Y98800000D01*
X11200000Y100100000D02*
X11200000Y98800000D01*
X12800000Y100100000D02*
X12800000Y98200000D01*
X14400000Y100100000D02*
X14400000Y98800000D01*
X16000000Y100100000D02*
X16000000Y98800000D01*
X17600000Y100100000D02*
X17600000Y98800000D01*
X19200000Y100100000D02*
X19200000Y98800000D01*
X20800000Y100100000D02*
X20800000Y98800000D01*
X22400000Y100100000D02*
X22400000Y98800000D01*
X24000000Y100100000D02*
X24000000Y98800000D01*
X25600000Y100100000D02*
X25600000Y97600000D01*
X27200000Y100100000D02*
X27200000Y98800000D01*
X28800000Y100100000D02*
X28800000Y98800000D01*
X30400000Y100100000D02*
X30400000Y98800000D01*
X32000000Y100100000D02*
X32000000Y98800000D01*
X33600000Y100100000D02*
X33600000Y98800000D01*
X35200000Y100100000D02*
X35200000Y98800000D01*
X36800000Y100100000D02*
X36800000Y98800000D01*
X38400000Y100100000D02*
X38400000Y98200000D01*
X40000000Y100100000D02*
X40000000Y98800000D01*
X41600000Y100100000D02*
X41600000Y98800000D01*
X43200000Y100100000D02*
X43200000Y98800000D01*
X44800000Y100100000D02*
X44800000Y98800000D01*
X46400000Y100100000D02*
X46400000Y98800000D01*
X48000000Y100100000D02*
X48000000Y98800000D01*
X49600000Y100100000D02*
X49600000Y98800000D01*
X51200000Y100100000D02*
X51200000Y97600000D01*
X52800000Y100100000D02*
X52800000Y98800000D01*
X54400000Y100100000D02*
X54400000Y98800000D01*
X56000000Y100100000D02*
X56000000Y98800000D01*
X57600000Y100100000D02*
X57600000Y98800000D01*
X59200000Y100100000D02*
X59200000Y98800000D01*
X60800000Y100100000D02*
X60800000Y98800000D01*
X62400000Y100100000D02*
X62400000Y98800000D01*
X64000000Y100100000D02*
X64000000Y98200000D01*
X65600000Y100100000D02*
X65600000Y98800000D01*
X67200000Y100100000D02*
X67200000Y98800000D01*
X68800000Y100100000D02*
X68800000Y98800000D01*
X70400000Y100100000D02*
X70400000Y98800000D01*
X72000000Y100100000D02*
X72000000Y98800000D01*
X73600000Y100100000D02*
X73600000Y98800000D01*
X75200000Y100100000D02*
X75200000Y98800000D01*
X76800000Y100100000D02*
X76800000Y97600000D01*
X78400000Y100100000D02*
X78400000Y98800000D01*
X80000000Y100100000D02*
X80000000Y98800000D01*
M02*
