M48
FMAT,2
ICI,OFF
METRIC,TZ,000.000
T01C1.702
T02C3.000
T03C3.988
T04C0.400
%
G90
M71
T01
X4.064Y18.044
X14.224Y18.044
X25.264Y18.044
X35.424Y18.044
X46.564Y18.044
X56.724Y18.044
X67.864Y18.044
X78.024Y18.044
X4.064Y39.344
X14.224Y39.344
X25.264Y39.344
X35.424Y39.344
X46.564Y39.344
X56.724Y39.344
X67.864Y39.344
X78.024Y39.344
X4.064Y60.644
X14.224Y60.644
X25.264Y60.644
X35.424Y60.644
X46.564Y60.644
X56.724Y60.644
X67.864Y60.644
X78.024Y60.644
X4.064Y81.944
X14.224Y81.944
X25.264Y81.944
X35.424Y81.944
X46.564Y81.944
X56.724Y81.944
X67.864Y81.944
X78.024Y81.944
T02
X5.334Y20.584
X6.604Y23.124
X11.684Y23.124
X12.954Y20.584
X26.534Y20.584
X27.804Y23.124
X32.884Y23.124
X34.154Y20.584
X47.834Y20.584
X49.104Y23.124
X54.184Y23.124
X55.454Y20.584
X69.134Y20.584
X70.404Y23.124
X75.484Y23.124
X76.754Y20.584
X5.334Y41.884
X6.604Y44.424
X11.684Y44.424
X12.954Y41.884
X26.534Y41.884
X27.804Y44.424
X32.884Y44.424
X34.154Y41.884
X47.834Y41.884
X49.104Y44.424
X54.184Y44.424
X55.454Y41.884
X69.134Y41.884
X70.404Y44.424
X75.484Y44.424
X76.754Y41.884
X5.334Y63.184
X6.604Y65.724
X11.684Y65.724
X12.954Y63.184
X26.534Y63.184
X27.804Y65.724
X32.884Y65.724
X34.154Y63.184
X47.834Y63.184
X49.104Y65.724
X54.184Y65.724
X55.454Y63.184
X69.134Y63.184
X70.404Y65.724
X75.484Y65.724
X76.754Y63.184
X5.334Y84.484
X6.604Y87.024
X11.684Y87.024
X12.954Y84.484
X26.534Y84.484
X27.804Y87.024
X32.884Y87.024
X34.154Y84.484
X47.834Y84.484
X49.104Y87.024
X54.184Y87.024
X55.454Y84.484
X69.134Y84.484
X70.404Y87.024
X75.484Y87.024
X76.754Y84.484
T03
X9.144Y18.044
X30.344Y18.044
X51.644Y18.044
X72.944Y18.044
X9.144Y39.344
X30.344Y39.344
X51.644Y39.344
X72.944Y39.344
X9.144Y60.644
X30.344Y60.644
X51.644Y60.644
X72.944Y60.644
X9.144Y81.944
X30.344Y81.944
X51.644Y81.944
X72.944Y81.944
T04
X11.1Y6.0
X11.1Y9.0
X12.1Y6.0
X10.1Y6.0
X12.1Y9.0
X10.1Y9.0
X13.1Y6.0
X9.1Y6.0
X13.1Y9.0
X9.1Y9.0
X32.4Y6.0
X32.4Y9.0
X33.4Y6.0
X31.4Y6.0
X33.4Y9.0
X31.4Y9.0
X34.4Y6.0
X30.4Y6.0
X34.4Y9.0
X30.4Y9.0
X53.7Y6.0
X53.7Y9.0
X54.7Y6.0
X52.7Y6.0
X54.7Y9.0
X52.7Y9.0
X55.7Y6.0
X51.7Y6.0
X55.7Y9.0
X51.7Y9.0
X75.0Y6.0
X75.0Y9.0
X76.0Y6.0
X74.0Y6.0
X76.0Y9.0
X74.0Y9.0
X77.0Y6.0
X73.0Y6.0
X77.0Y9.0
X73.0Y9.0
X11.1Y27.2
X11.1Y30.2
X12.1Y27.2
X10.1Y27.2
X12.1Y30.2
X10.1Y30.2
X13.1Y27.2
X9.1Y27.2
X13.1Y30.2
X9.1Y30.2
X32.4Y27.2
X32.4Y30.2
X33.4Y27.2
X31.4Y27.2
X33.4Y30.2
X31.4Y30.2
X34.4Y27.2
X30.4Y27.2
X34.4Y30.2
X30.4Y30.2
X53.7Y27.2
X53.7Y30.2
X54.7Y27.2
X52.7Y27.2
X54.7Y30.2
X52.7Y30.2
X55.7Y27.2
X51.7Y27.2
X55.7Y30.2
X51.7Y30.2
X75.0Y27.2
X75.0Y30.2
X76.0Y27.2
X74.0Y27.2
X76.0Y30.2
X74.0Y30.2
X77.0Y27.2
X73.0Y27.2
X77.0Y30.2
X73.0Y30.2
X11.1Y48.5
X11.1Y51.5
X12.1Y48.5
X10.1Y48.5
X12.1Y51.5
X10.1Y51.5
X13.1Y48.5
X9.1Y48.5
X13.1Y51.5
X9.1Y51.5
X32.4Y48.5
X32.4Y51.5
X33.4Y48.5
X31.4Y48.5
X33.4Y51.5
X31.4Y51.5
X34.4Y48.5
X30.4Y48.5
X34.4Y51.5
X30.4Y51.5
X53.7Y48.5
X53.7Y51.5
X54.7Y48.5
X52.7Y48.5
X54.7Y51.5
X52.7Y51.5
X55.7Y48.5
X51.7Y48.5
X55.7Y51.5
X51.7Y51.5
X75.0Y48.5
X75.0Y51.5
X76.0Y48.5
X74.0Y48.5
X76.0Y51.5
X74.0Y51.5
X77.0Y48.5
X73.0Y48.5
X77.0Y51.5
X73.0Y51.5
X11.1Y69.8
X11.1Y72.8
X12.1Y69.8
X10.1Y69.8
X12.1Y72.8
X10.1Y72.8
X13.1Y69.8
X9.1Y69.8
X13.1Y72.8
X9.1Y72.8
X32.4Y69.8
X32.4Y72.8
X33.4Y69.8
X31.4Y69.8
X33.4Y72.8
X31.4Y72.8
X34.4Y69.8
X30.4Y69.8
X34.4Y72.8
X30.4Y72.8
X53.7Y69.8
X53.7Y72.8
X54.7Y69.8
X52.7Y69.8
X54.7Y72.8
X52.7Y72.8
X55.7Y69.8
X51.7Y69.8
X55.7Y72.8
X51.7Y72.8
X75.0Y69.8
X75.0Y72.8
X76.0Y69.8
X74.0Y69.8
X76.0Y72.8
X74.0Y72.8
X77.0Y69.8
X73.0Y69.8
X77.0Y72.8
X73.0Y72.8
X11.1Y91.1
X11.1Y94.1
X12.1Y91.1
X10.1Y91.1
X12.1Y94.1
X10.1Y94.1
X13.1Y91.1
X9.1Y91.1
X13.1Y94.1
X9.1Y94.1
X32.4Y91.1
X32.4Y94.1
X33.4Y91.1
X31.4Y91.1
X33.4Y94.1
X31.4Y94.1
X34.4Y91.1
X30.4Y91.1
X34.4Y94.1
X30.4Y94.1
X53.7Y91.1
X53.7Y94.1
X54.7Y91.1
X52.7Y91.1
X54.7Y94.1
X52.7Y94.1
X55.7Y91.1
X51.7Y91.1
X55.7Y94.1
X51.7Y94.1
X75.0Y91.1
X75.0Y94.1
X76.0Y91.1
X74.0Y91.1
X76.0Y94.1
X74.0Y94.1
X77.0Y91.1
X73.0Y91.1
X77.0Y94.1
X73.0Y94.1

M30
