M48
FMAT,2
ICI,OFF
METRIC,TZ,000.000
T01C0.400
T02C1.000
%
G90
M71
T01
X4.673Y15.605
X9.144Y14.234
X2.159Y21.854
X16.129Y21.854
X25.873Y15.605
X30.344Y14.234
X23.359Y21.854
X37.329Y21.854
X47.173Y15.605
X51.644Y14.234
X44.659Y21.854
X58.629Y21.854
X68.473Y15.605
X72.944Y14.234
X65.959Y21.854
X79.929Y21.854
X4.673Y36.905
X9.144Y35.534
X2.159Y43.154
X16.129Y43.154
X25.873Y36.905
X30.344Y35.534
X23.359Y43.154
X37.329Y43.154
X47.173Y36.905
X51.644Y35.534
X44.659Y43.154
X58.629Y43.154
X68.473Y36.905
X72.944Y35.534
X65.959Y43.154
X79.929Y43.154
X4.673Y58.205
X9.144Y56.834
X2.159Y64.454
X16.129Y64.454
X25.873Y58.205
X30.344Y56.834
X23.359Y64.454
X37.329Y64.454
X47.173Y58.205
X51.644Y56.834
X44.659Y64.454
X58.629Y64.454
X68.473Y58.205
X72.944Y56.834
X65.959Y64.454
X79.929Y64.454
X4.673Y79.505
X9.144Y78.134
X2.159Y85.754
X16.129Y85.754
X25.873Y79.505
X30.344Y78.134
X23.359Y85.754
X37.329Y85.754
X47.173Y79.505
X51.644Y78.134
X44.659Y85.754
X58.629Y85.754
X68.473Y79.505
X72.944Y78.134
X65.959Y85.754
X79.929Y85.754
T02
X1.524Y14.234
X9.144Y25.664
X9.144Y10.424
X16.764Y14.234
X22.724Y14.234
X30.344Y25.664
X30.344Y10.424
X37.964Y14.234
X44.024Y14.234
X51.644Y25.664
X51.644Y10.424
X59.264Y14.234
X65.324Y14.234
X72.944Y25.664
X72.944Y10.424
X80.564Y14.234
X1.524Y35.534
X9.144Y46.964
X9.144Y31.724
X16.764Y35.534
X22.724Y35.534
X30.344Y46.964
X30.344Y31.724
X37.964Y35.534
X44.024Y35.534
X51.644Y46.964
X51.644Y31.724
X59.264Y35.534
X65.324Y35.534
X72.944Y46.964
X72.944Y31.724
X80.564Y35.534
X1.524Y56.834
X9.144Y68.264
X9.144Y53.024
X16.764Y56.834
X22.724Y56.834
X30.344Y68.264
X30.344Y53.024
X37.964Y56.834
X44.024Y56.834
X51.644Y68.264
X51.644Y53.024
X59.264Y56.834
X65.324Y56.834
X72.944Y68.264
X72.944Y53.024
X80.564Y56.834
X1.524Y78.134
X9.144Y89.564
X9.144Y74.324
X16.764Y78.134
X22.724Y78.134
X30.344Y89.564
X30.344Y74.324
X37.964Y78.134
X44.024Y78.134
X51.644Y89.564
X51.644Y74.324
X59.264Y78.134
X65.324Y78.134
X72.944Y89.564
X72.944Y74.324
X80.564Y78.134

M30
